<svg id="visual" viewBox="0 0 900 600" width="900" height="600" xmlns="http://www.w3.org/2000/svg" xmlns:xlink="http://www.w3.org/1999/xlink" version="1.1"><rect x="0" y="0" width="900" height="600" fill="#0b1216"></rect><path d="M0 435L18.8 442C37.7 449 75.3 463 112.8 453.8C150.3 444.7 187.7 412.3 225.2 400.2C262.7 388 300.3 396 337.8 408.3C375.3 420.7 412.7 437.3 450.2 453.8C487.7 470.3 525.3 486.7 562.8 496.2C600.3 505.7 637.7 508.3 675.2 501.2C712.7 494 750.3 477 787.8 455C825.3 433 862.7 406 881.3 392.5L900 379L900 601L881.3 601C862.7 601 825.3 601 787.8 601C750.3 601 712.7 601 675.2 601C637.7 601 600.3 601 562.8 601C525.3 601 487.7 601 450.2 601C412.7 601 375.3 601 337.8 601C300.3 601 262.7 601 225.2 601C187.7 601 150.3 601 112.8 601C75.3 601 37.7 601 18.8 601L0 601Z" fill="#1aa3ff" stroke-linecap="round" stroke-linejoin="miter"></path></svg>